<?xml version="1.0" encoding="UTF-8" standalone="no"?>
<!-- Created with Inkscape (http://www.inkscape.org/) -->

<svg width="166.87793mm" height="29.0576mm" viewBox="0 0 166.87793 29.0576" version="1.1" id="svg5" inkscape:version="1.3.2 (091e20ef0f, 2023-11-25)" sodipodi:docname="logo_img.svg" xmlns:inkscape="http://www.inkscape.org/namespaces/inkscape" xmlns:sodipodi="http://sodipodi.sourceforge.net/DTD/sodipodi-0.dtd" xmlns="http://www.w3.org/2000/svg" xmlns:svg="http://www.w3.org/2000/svg">
  <sodipodi:namedview id="namedview7" pagecolor="#505050" bordercolor="#ffffff" borderopacity="1" inkscape:pageshadow="0" inkscape:pageopacity="0" inkscape:pagecheckerboard="1" inkscape:document-units="mm" showgrid="false" inkscape:zoom="1.0280428" inkscape:cx="336.0755" inkscape:cy="143.47652" inkscape:window-width="2560" inkscape:window-height="1351" inkscape:window-x="0" inkscape:window-y="0" inkscape:window-maximized="1" inkscape:current-layer="layer1" inkscape:showpageshadow="0" inkscape:deskcolor="#d1d1d1" />
  <defs id="defs2">
    <rect x="79.459824" y="209.79659" width="787.29175" height="286.46924" id="rect2564" />
  </defs>
  <g inkscape:label="Layer 1" inkscape:groupmode="layer" id="layer1" transform="translate(-21.379123,-75.71468)">
    <path style="font-size:192px;line-height:1.25;font-family:'Kolker Brush';-inkscape-font-specification:'Kolker Brush';white-space:pre" d="m 129.76298,395.79772 -4.608,-0.576 q -2.304,-1.536 -3.648,-4.032 -1.152,-2.304 -2.112,-4.608 h -0.96 q -3.264,0 -4.224,1.152 -0.768,1.344 -1.536,2.496 -0.768,1.344 -3.84,1.344 -2.112,0 -4.416,-0.576 -2.304,-0.384 -4.607996,-0.384 -1.344,0 -2.496,0.384 -0.96,0.384 -2.304,0.384 -2.88,0 -6.144,-0.96 -3.264,-0.96 -5.76,-3.072 -2.304,-2.112 -2.304,-5.376 0,-4.608 3.648,-7.296 3.84,-2.88 7.872,-3.456 l -0.384,0.384 q -2.112,1.344 -4.992,3.456 -2.88,1.92 -2.88,4.992 0,2.688 3.264,4.224 3.456,1.536 5.76,1.536 l 0.96,-0.384 q 2.304,0.576 5.376,0.576 4.607996,0 9.599996,-0.768 5.184,-0.768 8.64,-1.536 v -1.344 q -1.728,-2.496 -1.728,-4.8 l 2.112,-5.184 -1.344,-1.92 1.728,-3.264 v -0.576 l -1.536,-0.192 -0.96,0.768 v -0.192 l 0.768,-1.152 q -0.576,-2.496 0.768,-5.568 1.536,-3.072 3.072,-6.144 1.728,-3.264 1.728,-5.76 1.536,-1.344 3.456,-5.184 2.112,-4.032 4.032,-8.256 1.92,-4.224 3.072,-6.336 3.648,-7.296 8.256,-14.016 4.608,-6.912 9.792,-13.44 -1.92,0.576 -3.84,1.152 -1.728,0.576 -3.84,0.576 -1.344,0.96 -5.568,2.112 -4.224,1.152 -9.024,2.496 -4.608,1.152 -8.064,2.496 -3.456,1.152 -3.456,2.304 l 0.576,0.96 3.072,-2.112 0.768,0.384 1.152,-0.96 0.192,0.768 q 0,2.304 -1.152,4.032 l -0.768,-1.728 -1.728,1.152 0.384,1.344 -1.152,0.384 q 0.96,0.576 1.536,1.536 0.768,0.96 1.344,1.92 -4.416,0.192 -8.448,3.072 -3.84,2.688 -8.256,3.264 -0.96,1.344 -2.496,1.728 -1.536,0.384 -3.071996,0.384 -0.96,0 -2.88,-1.728 -1.92,-1.92 -3.456,-4.032 -1.344,-2.304 -1.344,-3.264 0,-2.112 2.496,-4.416 2.496,-2.304 3.84,-3.456 l -2.112,3.84 q 2.304,-1.536 6.527996,-3.264 4.224,-1.728 8.64,-3.264 4.608,-1.728 8.256,-3.264 3.648,-1.728 4.992,-2.88 7.488,-2.112 15.168,-3.84 7.872,-1.92 15.552,-2.688 0.96,-1.152 3.072,-3.456 2.304,-2.496 4.608,-4.416 2.304,-2.112 3.84,-2.112 3.456,0 6.144,0.384 2.688,0.192 4.032,3.84 0,2.112 -1.728,3.84 -1.536,1.536 -3.072,2.496 l 1.92,0.384 q 1.536,-0.576 2.496,-1.92 l 1.152,-0.192 h 0.384 q 1.152,0 1.92,0.576 0.96,0.576 1.728,1.344 l 2.112,-0.96 q 4.8,0 11.712,2.496 6.912,2.304 13.632,6.336 6.912,4.032 11.328,9.216 4.608,4.992 4.608,10.56 0,2.496 -0.384,4.992 -0.384,2.304 -0.768,4.608 l -1.152,-0.384 -0.96,0.768 v 0.384 l 1.536,1.728 q -1.344,4.224 -4.224,8.064 -2.688,3.648 -5.952,6.528 -3.072,0.768 -6.144,4.032 -3.072,3.264 -6.336,4.8 -2.112,2.496 -4.416,3.456 -2.304,0.96 -4.416,4.224 l -1.728,-1.728 -0.384,0.576 0.192,1.152 q 0,1.536 -2.88,1.536 -0.768,0 -1.536,0 -0.576,-0.192 -0.96,-0.192 l -0.96,0.96 0.192,1.536 q -0.192,0.192 -1.92,1.344 -1.536,1.152 -1.536,0.192 h -0.384 q -3.264,1.92 -5.952,3.648 l -1.344,-0.96 -0.96,1.728 q -0.192,-0.384 -0.768,-1.152 -0.576,-0.96 -1.344,-1.152 l -2.112,2.304 h -0.192 l -2.304,-1.152 -2.112,1.536 -0.96,-0.768 -3.264,1.536 0.192,0.192 h 1.344 l 1.152,1.152 v 0.192 h -0.576 l -3.072,-0.768 -2.112,0.768 -1.152,-0.192 q 1.92,-1.536 4.416,-2.688 l -1.152,-0.576 -2.496,1.92 -1.728,-0.768 v 0.768 q -1.728,0.384 -2.496,1.536 v 1.728 l -0.768,0.192 -2.112,-0.96 q -0.96,0.384 -1.92,0.768 -0.768,0.384 -1.536,0.96 -3.84,0.384 -7.488,1.92 -3.648,1.728 -7.68,1.728 l -1.536,-0.768 -0.192,4.8 1.344,2.88 h 0.192 l 1.152,1.728 v 0.192 z m -2.112,-14.976 q 15.36,-4.608 29.76,-11.136 14.592,-6.72 28.608,-14.4 l 0.96,0.192 0.96,-0.192 -0.192,-0.768 0.576,-0.768 0.96,0.768 2.304,-1.728 -0.192,-0.384 -1.152,-0.384 q 0.576,-1.536 4.8,-3.84 4.224,-2.496 9.216,-5.76 5.184,-3.456 9.024,-7.872 3.84,-4.608 3.84,-10.56 0,-6.528 -3.648,-10.752 -3.648,-4.416 -9.408,-7.104 -5.76,-2.688 -12.672,-4.032 -6.72,-1.344 -13.056,-1.92 -6.336,-0.576 -10.944,-0.576 -1.92,1.92 -2.88,4.032 -0.768,1.92 -2.112,3.264 -1.344,1.344 -4.608,1.344 l -1.536,1.344 v 1.92 q -2.88,1.344 -4.224,5.184 -1.344,3.648 -3.264,6.144 l -0.384,1.536 0.576,0.576 -3.648,6.144 -0.384,1.536 -0.768,-0.576 q 0,1.152 -1.536,4.8 -1.536,3.456 -3.648,7.872 -2.112,4.224 -3.84,8.256 -1.536,4.032 -1.92,6.144 -1.344,1.344 -2.496,5.952 -1.152,4.416 -1.92,9.024 -0.768,4.608 -1.152,6.72 z m 33.024,-4.416 q 1.536,-0.576 2.88,-1.92 l -0.768,-0.384 q -0.768,0.192 -1.536,0.768 -0.576,0.384 -1.344,0.768 z m 92.16002,19.008 -3.84,-4.416 q -0.96,-3.84 -2.112,-7.872 -0.96,-3.84 -1.344,-7.872 l 0.96,-3.648 -0.384,-0.192 q 0.768,-2.112 1.536,-4.224 0.96,-2.304 0.96,-4.416 -0.96,0.96 -2.112,1.92 -0.96,0.96 -1.536,2.304 -0.768,0.768 -1.344,1.92 -0.576,1.152 -1.536,1.92 l -0.192,1.728 q -2.688,0.576 -5.376,2.688 -2.496,1.92 -4.992,3.84 -2.496,1.728 -5.376,1.728 -1.344,0 -3.456,-0.192 -1.92,-0.384 -2.88,-1.152 -2.496,-0.576 -3.648,-1.344 -0.96,-0.96 -1.536,-3.456 l 0.768,-2.496 -0.576,-1.536 q 0.96,-3.072 1.344,-4.416 0.576,-1.344 1.536,-2.304 1.152,-0.96 3.648,-2.88 0.192,-0.96 0.96,-1.344 0.96,-0.576 1.728,-0.768 l 0.192,-0.96 1.92,-2.304 0.576,0.384 1.152,-1.728 q 1.344,-0.96 2.688,-1.152 1.536,-0.384 2.88,-1.152 0.384,-2.112 2.496,-2.496 2.304,-0.576 2.688,-2.112 h 0.768 l 3.264,-2.112 1.152,0.576 2.688,-1.728 q 1.152,0 2.112,-0.192 1.152,-0.192 2.112,-0.192 l 0.768,0.384 q -3.84,1.344 -8.832,4.416 -4.992,2.88 -9.792,6.912 -4.608,3.84 -7.68,8.448 -3.072,4.608 -3.072,9.216 0,3.648 3.84,3.648 3.456,0 7.104,-2.112 3.84,-2.112 6.912,-5.184 3.072,-3.072 4.416,-5.952 l 3.264,-2.688 q 0.384,-0.96 0.96,-1.344 0.576,-0.384 0.768,-1.344 1.344,-0.192 1.92,-2.304 0.576,-2.112 1.344,-4.608 0.768,-2.688 2.112,-4.608 1.344,-1.92 4.032,-1.92 2.112,0 4.8,1.92 2.688,1.728 2.688,4.224 0,1.344 -2.304,5.184 -2.304,3.84 -5.376,9.024 -2.88,5.184 -5.184,10.752 -2.304,5.568 -2.304,10.56 0,2.112 0.768,4.224 0.96,2.112 1.152,4.224 z m 15.74398,-10.368 q -2.112,0 -3.072,-1.92 -0.768,-1.728 -0.768,-3.456 0,-4.992 2.304,-10.368 2.496,-5.376 4.8,-9.792 2.496,-4.608 2.496,-7.104 0,-1.152 -1.344,-1.152 -0.576,0 -1.728,0.384 v -0.768 l 4.608,-5.376 v -0.192 q 0.96,-0.96 1.728,-1.92 0.768,-0.96 1.536,-1.728 l 1.728,-1.152 q 2.112,0.192 4.032,1.152 2.112,0.768 2.688,3.264 l -0.192,0.192 q 0.192,1.536 -1.344,3.264 -1.536,1.728 -2.688,2.688 -1.152,2.112 -2.688,4.032 -1.344,1.728 -2.496,3.84 v 1.92 l -0.768,1.536 h -0.384 q -0.576,1.152 -1.152,2.496 -0.384,1.344 -0.384,2.88 l 0.96,1.536 q 0.576,-0.576 2.112,-1.728 1.728,-1.344 3.072,-2.688 1.344,-1.344 1.344,-1.92 l 2.112,-1.92 q 0.96,-2.88 4.224,-6.144 3.264,-3.456 5.568,-5.376 l 0.576,-1.536 q 1.152,-0.576 2.304,-1.344 1.344,-0.768 2.688,-0.768 1.536,0 2.688,0.768 1.344,0.768 2.688,1.536 0,0.768 0,1.92 0.192,0.96 0.192,1.92 0,3.072 -1.728,5.76 -1.728,2.688 -3.456,5.568 -1.728,2.88 -1.728,7.104 0,0.576 0,2.688 0.192,1.92 0.576,3.84 0.576,1.728 1.728,1.728 l 6.144,-3.264 h 0.384 q 0.384,-1.152 1.344,-2.112 1.152,-0.96 2.496,-0.96 l 0.192,0.192 q 0,0.96 -1.728,2.88 -1.536,1.92 -3.456,3.648 -1.728,1.728 -2.496,2.496 -0.768,0.192 -1.728,0.384 -0.96,0 -1.92,0.384 l -0.576,-0.96 q -4.224,-0.384 -7.104,-2.88 -2.688,-2.688 -2.688,-6.912 0,-1.344 0.576,-4.8 0.576,-3.648 1.344,-7.104 0.96,-3.456 1.344,-4.8 -2.304,1.536 -4.416,4.8 -2.112,3.072 -3.84,5.184 -1.92,0.768 -4.032,4.032 -1.92,3.072 -4.032,6.912 -2.112,3.648 -4.224,6.528 -2.112,2.688 -4.416,2.688 z m 68.92808,-50.304 q -0.576,0 -3.072,-0.384 -2.304,-0.576 -2.304,-1.344 0,-2.88 2.88,-4.224 3.072,-1.344 4.992,-2.688 h 0.384 q 2.688,-2.112 6.336,-2.88 3.84,-0.768 7.104,-0.96 l -0.192,0.192 q -3.648,1.152 -6.528,4.224 -2.88,2.88 -5.376,5.568 -2.304,2.496 -4.224,2.496 z m -24.768,53.376 -3.072,-4.416 q -0.192,-1.344 -0.576,-2.496 -0.384,-1.344 -0.384,-2.688 0,-1.728 0.192,-3.456 0.192,-1.728 0.384,-3.456 l 1.344,-3.264 -0.192,-0.192 q 0.96,-2.304 1.92,-5.952 0.96,-3.648 2.304,-7.296 1.536,-3.84 3.648,-6.336 2.112,-2.688 5.184,-2.688 2.112,0 4.8,1.536 2.688,1.536 2.688,4.032 0,0.96 -1.536,3.456 -1.344,2.496 -3.264,5.568 -1.92,2.88 -3.84,5.184 -1.728,2.112 -2.496,2.496 -1.728,3.072 -4.8,7.104 -3.072,4.032 -3.072,7.488 0,1.344 0.384,2.496 0.576,1.152 0.576,2.496 z m 28.03196,-4.032 q -1.728,0 -4.224,-2.304 -2.304,-2.304 -3.84,-3.456 -0.384,-2.496 -1.344,-4.416 -0.96,-2.112 -0.96,-4.416 0,-3.456 2.496,-8.064 2.688,-4.8 6.72,-9.408 4.224,-4.608 8.448,-7.68 4.416,-3.072 7.872,-3.072 v -0.384 q 2.688,0.576 4.992,3.456 2.496,2.88 2.496,5.376 0,2.304 -2.88,4.8 -2.688,2.304 -6.72,4.416 -3.84,1.92 -7.68,3.072 -3.648,1.152 -5.76,1.152 v 0.384 q -1.344,2.112 -2.688,5.376 -1.152,3.072 -1.152,5.76 0,0.96 0.576,2.112 1.344,0.96 3.456,0.96 2.112,-0.192 3.456,0 l 0.192,0.192 0.576,-0.96 q 2.496,-0.192 4.8,-1.152 v -1.152 h 1.152 v -0.576 l 0.768,0.192 q 0.96,-0.384 1.344,-0.768 0.576,-0.576 1.344,-0.96 l 1.152,0.576 v -0.192 l 3.456,-3.264 h 0.192 l 0.576,0.384 v -0.192 q 2.496,-2.304 5.376,-4.224 2.88,-1.92 4.224,-4.992 l 2.112,-1.536 0.384,0.384 q 0,1.344 -0.96,2.496 -0.96,1.152 -2.304,1.536 -1.536,3.648 -4.608,6.144 -2.88,2.496 -5.952,5.184 h -0.576 l -0.192,0.96 q -3.648,2.496 -7.68,5.376 -3.84,2.88 -8.64,2.88 z m 3.648,-24.576 h 0.384 v -0.384 q 1.344,-0.384 4.608,-2.304 3.456,-1.92 6.528,-4.032 3.072,-2.304 3.264,-3.264 h 0.192 l -0.192,-0.96 0.192,-0.96 q -0.192,0 -0.768,0 -0.576,-0.192 -0.96,-0.192 -2.496,1.728 -4.992,3.264 -2.496,1.536 -4.992,3.072 h -0.384 l -0.192,1.536 q -1.152,0.768 -1.728,1.92 -0.576,0.96 -0.96,2.304 z m 29.184,-0.576 -1.152,-0.384 -0.192,-1.152 1.92,-0.576 0.192,0.576 z m -7.48794,34.368 q -3.648,0 -5.376,-2.112 -1.536,-2.112 -1.536,-5.568 0,-1.152 0.576,-4.032 0.576,-3.072 1.536,-6.528 1.152,-3.456 2.304,-5.952 1.344,-2.496 2.688,-2.496 0.384,-2.112 1.536,-5.376 1.344,-3.264 3.264,-4.8 l 1.152,-0.384 v -0.384 l 1.92,-2.112 q 0.576,-0.768 0.576,-0.576 0.192,0 0.192,0 0,-1.728 0.576,-3.456 2.112,-1.344 3.072,-3.648 l 0.192,-1.344 h 0.384 l 4.032,-8.064 v -0.192 q 0,-0.96 0.768,-1.344 0.96,-0.576 0.576,-1.344 1.536,-2.688 4.8,-7.296 3.456,-4.8 7.296,-9.984 4.032,-5.184 7.68,-9.6 3.648,-4.416 5.952,-6.336 l 0.96,-0.384 1.344,-2.688 q 1.536,-0.384 3.264,-1.152 1.728,-0.96 3.648,-0.96 1.728,0 4.224,0.96 2.688,0.768 4.608,2.304 1.92,1.536 1.728,3.648 l -0.192,1.728 -0.192,0.384 q -1.728,3.072 -4.608,5.184 -1.728,5.76 -6.336,12.096 -4.608,6.144 -10.368,12.096 -5.76,5.952 -11.328,10.944 -5.568,4.992 -9.408,8.256 -3.648,3.264 -4.032,4.224 -1.152,0.192 -3.456,1.92 -2.112,1.536 -4.032,3.456 -1.728,1.92 -1.728,2.88 l -0.768,1.728 q -5.376,3.264 -7.872,8.832 -2.304,5.568 -2.304,11.712 0,2.688 1.344,3.456 1.344,0.768 1.536,2.304 z m 15.552,-39.168 q 2.688,-2.112 7.488,-6.144 4.8,-4.224 10.176,-9.408 5.568,-5.184 10.368,-10.752 4.992,-5.568 8.064,-10.56 3.072,-4.992 3.072,-8.64 0,-0.384 -0.384,-0.96 -0.192,-0.768 -0.384,-1.152 h -0.192 q -1.152,0 -4.416,3.072 -3.072,2.88 -7.488,7.872 -4.224,4.8 -8.832,10.56 -4.608,5.568 -8.64,10.944 -3.84,5.376 -6.336,9.408 -2.496,4.032 -2.496,5.76 z m 50.68784,41.856 q -3.648,-1.344 -7.68,-3.456 -4.032,-1.92 -6.912,-5.184 -2.688,-3.264 -2.688,-7.872 0,-2.112 0.576,-4.224 0.576,-2.304 2.304,-3.648 0.192,0.768 0,1.536 0,0.768 0,1.728 0,6.144 4.416,9.024 4.416,2.88 9.792,2.88 6.144,0 11.328,-3.072 5.376,-3.072 9.024,-7.296 v -1.344 h 0.192 l 1.152,-1.536 q 0.96,-0.384 1.728,-0.96 0.768,-0.576 1.344,-1.152 v -1.536 q 2.688,-1.344 4.8,-4.416 2.304,-3.264 3.84,-5.76 1.536,0 2.112,-1.728 0.576,-1.92 0.768,-3.072 l 0.192,-0.192 -0.192,-0.384 q -4.032,0 -8.256,0.96 -4.032,0.768 -8.256,1.152 -3.648,3.072 -8.256,3.072 -2.112,0 -4.416,-1.152 -2.304,-1.152 -2.304,-3.648 0,-1.344 0.96,-3.264 1.152,-1.92 2.688,-3.456 1.728,-1.728 3.072,-1.728 l 0.384,1.152 h 3.072 q 2.112,0 4.032,-0.192 2.112,-0.192 4.032,-0.192 l 1.728,-0.96 1.728,0.96 q 0.96,-0.768 3.84,-0.768 2.688,0 5.952,0.384 3.456,0.384 5.184,0.192 1.536,-3.264 3.264,-6.144 1.728,-3.072 2.88,-6.144 l 1.344,-1.152 q 1.728,-6.528 4.224,-12.672 2.496,-6.336 4.608,-12.672 h -6.72 q -2.112,0 -4.416,0.192 -2.112,0.192 -4.032,1.152 l -2.304,-0.192 q -2.688,-0.384 -5.376,0.576 -2.496,0.96 -4.8,2.112 l -0.768,-0.192 -0.576,0.576 q -10.176,1.728 -19.584,7.872 -9.216,6.144 -15.552,14.208 l 1.92,1.152 3.456,-0.384 0.576,0.576 q -0.96,0.96 -2.304,1.536 -1.344,0.576 -2.688,0.96 l -1.536,-1.344 -1.536,0.576 q -0.576,-1.152 -0.576,-2.112 0,-3.456 3.264,-7.68 3.456,-4.224 5.76,-6.72 v -1.152 q 4.032,-3.264 10.176,-6.528 6.336,-3.456 13.632,-6.144 7.296,-2.688 14.592,-4.224 7.296,-1.728 13.248,-1.728 1.344,0 2.496,0.192 1.152,0 2.304,0.192 0.768,-0.576 1.728,-0.768 0.96,-0.192 1.728,-0.384 l -0.96,-0.192 q 1.536,-2.496 1.536,-5.184 0.384,-0.192 0.768,-0.384 0.576,-0.192 0.96,-0.192 2.112,0 5.568,0.384 3.648,0.384 6.336,1.92 2.88,1.344 2.496,4.608 3.264,-0.384 6.528,-0.384 3.264,-0.192 6.528,-0.192 5.76,0 11.52,0.768 5.952,0.768 11.136,4.032 l -0.576,0.768 q 0.576,1.92 2.304,2.496 l 0.576,1.536 -1.344,0.96 0.768,2.112 q -1.344,3.648 -2.688,4.8 -1.344,1.152 -5.376,1.536 l -1.536,-0.96 -6.528,2.88 -0.192,-0.192 0.768,-1.728 v -0.192 q -1.152,0.96 -2.496,1.728 -1.344,0.768 -2.88,0.96 l -0.576,-0.384 0.576,-0.576 q 3.648,-1.152 6.144,-3.648 2.496,-2.496 4.416,-5.568 l -0.384,-3.072 -5.184,-2.496 -0.192,-0.576 q -2.496,-0.768 -5.184,-0.768 -2.688,-0.192 -5.376,-0.192 -2.688,0 -5.376,0.576 -2.496,0.576 -5.184,0.768 l 0.768,1.536 q -0.192,0.768 -0.768,2.688 -0.576,1.92 -1.536,2.112 l -2.304,-1.536 -0.192,0.192 q -0.192,2.496 -1.344,4.992 -1.152,2.304 -2.688,4.224 -3.264,0.192 -3.264,3.648 l 1.152,0.768 0.768,-1.152 0.768,-0.192 0.384,0.576 q -1.344,2.112 -2.88,3.072 -1.536,0 -2.688,1.152 -0.96,1.152 -2.496,1.344 -1.536,0.768 -2.112,2.112 -0.384,1.344 -2.496,2.496 l 0.192,0.384 q -0.768,0.768 -2.496,3.072 -1.536,2.112 -2.88,4.416 -1.344,2.112 -1.536,3.264 h 0.384 l 0.576,1.152 q 1.92,-0.576 3.648,-0.576 1.728,-0.192 3.648,-0.192 1.92,0 3.648,0 1.728,0 3.456,-0.192 19.2,-3.264 37.632,-5.184 l 0.96,-0.384 0.384,0.384 q -0.576,1.536 -4.992,2.88 -4.224,1.344 -10.368,2.496 -6.144,0.96 -12.48,1.728 -6.336,0.768 -11.52,1.152 -4.992,0.384 -7.104,0.384 0,0.768 -3.072,1.728 -3.072,0.96 -6.528,2.112 -3.264,0.96 -4.608,2.688 v 2.496 l -0.96,-0.384 q -1.536,0.192 -2.112,1.536 -0.576,1.152 -0.768,2.688 -1.92,1.152 -3.648,2.88 -1.728,1.536 -3.648,3.072 l 0.192,2.112 h -0.768 q -0.384,1.344 -2.304,2.688 -1.728,1.152 -2.88,2.112 l -0.96,1.728 0.96,0.768 -1.344,0.768 q -1.728,2.496 -5.568,6.336 -3.648,3.84 -6.336,4.992 -2.304,2.88 -5.568,4.224 -3.264,1.344 -6.912,2.304 z m 58.368,-72.96 h 2.112 l 0.192,-0.96 -0.192,-0.768 q -0.96,0.192 -2.112,1.728 z m 4.8,-0.384 0.576,-0.768 -0.384,-0.384 h -0.384 l -0.384,0.576 z m -4.416,3.456 -0.192,-0.96 -0.768,0.576 z m 0.576,3.456 0.576,-0.192 0.192,-0.96 -0.576,-0.192 -0.384,1.152 z m -57.792,4.992 0.384,-1.152 0.576,0.192 0.192,0.768 -0.192,0.192 z m 118.65589,46.272 q -2.88,0 -4.416,-2.304 l -4.416,-2.112 q -0.768,-1.728 -0.768,-4.224 0,-4.032 1.92,-8.64 2.112,-4.8 4.032,-8.064 -1.344,-0.768 -2.304,-1.92 -0.96,-1.152 -1.92,-2.304 l -0.576,-0.384 q -0.768,0.768 -1.728,1.344 -0.96,0.576 -1.92,0.768 -1.728,1.728 -4.992,5.76 -3.264,3.84 -7.104,8.064 -3.84,4.032 -7.488,7.104 -3.456,3.072 -5.568,3.072 l -0.192,-0.384 q 0.192,-1.152 1.728,-2.496 1.728,-1.536 2.496,-2.304 0.384,-1.536 1.92,-2.688 1.536,-1.152 2.88,-1.728 h 0.192 l 1.152,-1.728 0.96,-0.576 -0.192,-0.192 1.344,-0.96 q 0.384,-0.96 1.152,-1.728 0.768,-0.768 1.344,-1.536 v -0.384 q 4.224,-3.264 7.68,-7.104 3.648,-4.032 7.488,-7.872 l 0.192,-0.192 -0.192,-1.152 q 0,-2.112 0.96,-4.608 1.152,-2.688 2.496,-4.032 1.344,-1.92 3.264,-4.032 2.112,-2.304 4.608,-2.304 1.92,0 2.304,1.92 0.384,1.728 0.384,3.072 0,4.8 -2.496,7.488 -2.496,2.496 -5.184,3.84 -2.496,1.344 -2.496,2.88 l 3.072,1.344 1.152,-0.96 0.192,0.192 h 0.384 q 1.152,-0.576 2.304,-0.96 1.152,-0.576 2.496,-0.576 1.152,0 2.304,0.768 1.152,0.576 1.92,1.152 l 0.192,1.728 q 0.192,1.728 -1.536,3.84 -1.536,1.92 -3.84,4.608 -2.304,2.496 -4.032,6.144 -1.728,3.456 -1.728,8.064 0,1.152 0.384,2.496 0.576,1.152 2.112,1.152 2.304,0 5.184,-1.728 2.88,-1.728 5.76,-3.84 2.88,-2.304 4.8,-3.456 l 0.768,0.96 q 0,1.344 -2.304,3.264 -2.304,1.92 -5.568,3.84 -3.264,1.92 -6.336,3.264 -2.88,1.344 -4.224,1.344 z m 23.99996,3.264 q -1.728,0 -4.224,-2.304 -2.304,-2.304 -3.84,-3.456 -0.384,-2.496 -1.344,-4.416 -0.96,-2.112 -0.96,-4.416 0,-3.456 2.496,-8.064 2.688,-4.8 6.72,-9.408 4.224,-4.608 8.448,-7.68 4.416,-3.072 7.872,-3.072 v -0.384 q 2.688,0.576 4.992,3.456 2.496,2.88 2.496,5.376 0,2.304 -2.88,4.8 -2.688,2.304 -6.72,4.416 -3.84,1.92 -7.68,3.072 -3.648,1.152 -5.76,1.152 v 0.384 q -1.344,2.112 -2.688,5.376 -1.152,3.072 -1.152,5.76 0,0.96 0.576,2.112 1.344,0.96 3.456,0.96 2.112,-0.192 3.456,0 l 0.192,0.192 0.576,-0.96 q 2.496,-0.192 4.8,-1.152 v -1.152 h 1.152 v -0.576 l 0.768,0.192 q 0.96,-0.384 1.344,-0.768 0.576,-0.576 1.344,-0.96 l 1.152,0.576 v -0.192 l 3.456,-3.264 h 0.192 l 0.576,0.384 v -0.192 q 2.496,-2.304 5.376,-4.224 2.88,-1.92 4.224,-4.992 l 2.112,-1.536 0.384,0.384 q 0,1.344 -0.96,2.496 -0.96,1.152 -2.304,1.536 -1.536,3.648 -4.608,6.144 -2.88,2.496 -5.952,5.184 h -0.576 l -0.192,0.96 q -3.648,2.496 -7.68,5.376 -3.84,2.88 -8.64,2.88 z m 3.648,-24.576 h 0.384 v -0.384 q 1.344,-0.384 4.608,-2.304 3.456,-1.92 6.528,-4.032 3.072,-2.304 3.264,-3.264 h 0.192 l -0.192,-0.96 0.192,-0.96 q -0.192,0 -0.768,0 -0.576,-0.192 -0.96,-0.192 -2.496,1.728 -4.992,3.264 -2.496,1.536 -4.992,3.072 h -0.384 l -0.192,1.536 q -1.152,0.768 -1.728,1.92 -0.576,0.96 -0.96,2.304 z m 29.184,-0.576 -1.152,-0.384 -0.192,-1.152 1.92,-0.576 0.192,0.576 z m 20.54406,-24.192 q -0.576,0 -3.072,-0.384 -2.304,-0.576 -2.304,-1.344 0,-2.88 2.88,-4.224 3.072,-1.344 4.992,-2.688 h 0.384 q 2.688,-2.112 6.336,-2.88 3.84,-0.768 7.104,-0.96 l -0.192,0.192 q -3.648,1.152 -6.528,4.224 -2.88,2.88 -5.376,5.568 -2.304,2.496 -4.224,2.496 z m -24.768,53.376 -3.072,-4.416 q -0.192,-1.344 -0.576,-2.496 -0.384,-1.344 -0.384,-2.688 0,-1.728 0.192,-3.456 0.192,-1.728 0.384,-3.456 l 1.344,-3.264 -0.192,-0.192 q 0.96,-2.304 1.92,-5.952 0.96,-3.648 2.304,-7.296 1.536,-3.84 3.648,-6.336 2.112,-2.688 5.184,-2.688 2.112,0 4.8,1.536 2.688,1.536 2.688,4.032 0,0.96 -1.536,3.456 -1.344,2.496 -3.264,5.568 -1.92,2.88 -3.84,5.184 -1.728,2.112 -2.496,2.496 -1.728,3.072 -4.8,7.104 -3.072,4.032 -3.072,7.488 0,1.344 0.384,2.496 0.576,1.152 0.576,2.496 z m 48.76796,-7.296 q -2.88,0 -4.416,-2.304 l -4.416,-2.112 q -0.768,-1.728 -0.768,-4.224 0,-4.032 1.92,-8.64 2.112,-4.8 4.032,-8.064 -1.344,-0.768 -2.304,-1.92 -0.96,-1.152 -1.92,-2.304 l -0.576,-0.384 q -0.768,0.768 -1.728,1.344 -0.96,0.576 -1.92,0.768 -1.728,1.728 -4.992,5.76 -3.264,3.84 -7.104,8.064 -3.84,4.032 -7.488,7.104 -3.456,3.072 -5.568,3.072 l -0.192,-0.384 q 0.192,-1.152 1.728,-2.496 1.728,-1.536 2.496,-2.304 0.384,-1.536 1.92,-2.688 1.536,-1.152 2.88,-1.728 h 0.192 l 1.152,-1.728 0.96,-0.576 -0.192,-0.192 1.344,-0.96 q 0.384,-0.96 1.152,-1.728 0.768,-0.768 1.344,-1.536 v -0.384 q 4.224,-3.264 7.68,-7.104 3.648,-4.032 7.488,-7.872 l 0.192,-0.192 -0.192,-1.152 q 0,-2.112 0.96,-4.608 1.152,-2.688 2.496,-4.032 1.344,-1.92 3.264,-4.032 2.112,-2.304 4.608,-2.304 1.92,0 2.304,1.92 0.384,1.728 0.384,3.072 0,4.8 -2.496,7.488 -2.496,2.496 -5.184,3.84 -2.496,1.344 -2.496,2.88 l 3.072,1.344 1.152,-0.96 0.192,0.192 h 0.384 q 1.152,-0.576 2.304,-0.96 1.152,-0.576 2.496,-0.576 1.152,0 2.304,0.768 1.152,0.576 1.92,1.152 l 0.192,1.728 q 0.192,1.728 -1.536,3.84 -1.536,1.92 -3.84,4.608 -2.304,2.496 -4.032,6.144 -1.728,3.456 -1.728,8.064 0,1.152 0.384,2.496 0.576,1.152 2.112,1.152 2.304,0 5.184,-1.728 2.88,-1.728 5.76,-3.84 2.88,-2.304 4.8,-3.456 l 0.768,0.96 q 0,1.344 -2.304,3.264 -2.304,1.92 -5.568,3.84 -3.264,1.92 -6.336,3.264 -2.88,1.344 -4.224,1.344 z m 23.99996,3.264 q -1.728,0 -4.224,-2.304 -2.304,-2.304 -3.84,-3.456 -0.384,-2.496 -1.344,-4.416 -0.96,-2.112 -0.96,-4.416 0,-3.456 2.496,-8.064 2.688,-4.8 6.72,-9.408 4.224,-4.608 8.448,-7.68 4.416,-3.072 7.872,-3.072 v -0.384 q 2.688,0.576 4.992,3.456 2.496,2.88 2.496,5.376 0,2.304 -2.88,4.8 -2.688,2.304 -6.72,4.416 -3.84,1.92 -7.68,3.072 -3.648,1.152 -5.76,1.152 v 0.384 q -1.344,2.112 -2.688,5.376 -1.152,3.072 -1.152,5.76 0,0.96 0.576,2.112 1.344,0.96 3.456,0.96 2.112,-0.192 3.456,0 l 0.192,0.192 0.576,-0.96 q 2.496,-0.192 4.8,-1.152 v -1.152 h 1.152 v -0.576 l 0.768,0.192 q 0.96,-0.384 1.344,-0.768 0.576,-0.576 1.344,-0.96 l 1.152,0.576 v -0.192 l 3.456,-3.264 h 0.192 l 0.576,0.384 v -0.192 q 2.496,-2.304 5.376,-4.224 2.88,-1.92 4.224,-4.992 l 2.112,-1.536 0.384,0.384 q 0,1.344 -0.96,2.496 -0.96,1.152 -2.304,1.536 -1.536,3.648 -4.608,6.144 -2.88,2.496 -5.952,5.184 h -0.576 l -0.192,0.96 q -3.648,2.496 -7.68,5.376 -3.84,2.88 -8.64,2.88 z m 3.648,-24.576 h 0.384 v -0.384 q 1.344,-0.384 4.608,-2.304 3.456,-1.92 6.528,-4.032 3.072,-2.304 3.264,-3.264 h 0.192 l -0.192,-0.96 0.192,-0.96 q -0.192,0 -0.768,0 -0.576,-0.192 -0.96,-0.192 -2.496,1.728 -4.992,3.264 -2.496,1.536 -4.992,3.072 h -0.384 l -0.192,1.536 q -1.152,0.768 -1.728,1.92 -0.576,0.96 -0.96,2.304 z m 29.184,-0.576 -1.152,-0.384 -0.192,-1.152 1.92,-0.576 0.192,0.576 z" id="text2562" transform="scale(0.26458333)" aria-label="Daniel Freire" />
  </g>
</svg>
