<?xml version="1.0" encoding="UTF-8" standalone="no"?>
<!-- Created with Inkscape (http://www.inkscape.org/) -->

<svg width="1200" height="141.48579" viewBox="0 0 317.5 37.434783" version="1.1" id="svg1" inkscape:version="1.4.2 (unknown)" sodipodi:docname="logo.svg" inkscape:export-filename="open-graph.png" inkscape:export-xdpi="96" inkscape:export-ydpi="96" xmlns:inkscape="http://www.inkscape.org/namespaces/inkscape" xmlns:sodipodi="http://sodipodi.sourceforge.net/DTD/sodipodi-0.dtd" xmlns="http://www.w3.org/2000/svg" xmlns:svg="http://www.w3.org/2000/svg">
  <sodipodi:namedview id="namedview1" pagecolor="#505050" bordercolor="#eeeeee" borderopacity="1" inkscape:showpageshadow="0" inkscape:pageopacity="0" inkscape:pagecheckerboard="0" inkscape:deskcolor="#d1d1d1" inkscape:document-units="mm" inkscape:zoom="0.34709043" inkscape:cx="203.1171" inkscape:cy="67.705698" inkscape:window-width="1912" inkscape:window-height="976" inkscape:window-x="2560" inkscape:window-y="180" inkscape:window-maximized="0" inkscape:current-layer="layer1" />
  <defs id="defs1" />
  <g inkscape:label="Layer 1" inkscape:groupmode="layer" id="layer1" transform="translate(-61.456895,-103.26173)">
    <path style="font-size:384px;font-family:'Mozilla Headline';-inkscape-font-specification:'Mozilla Headline';letter-spacing:0px;word-spacing:0px;fill:#f27a3d;stroke-width:1.00157;stroke-linecap:round;stroke-linejoin:bevel;stroke-miterlimit:0;fill-opacity:1" d="m 262.99773,358.55438 v -236.16 h -30.72 v -28.799998 h 128.256 q 36.48,0 60.672,13.823998 24.192,13.824 36.096,43.008 12.288,29.184 12.288,75.648 0,46.08 -12.288,75.648 -11.904,29.184 -36.096,43.008 -24.192,13.824 -60.672,13.824 z m 37.248,-28.8 h 57.216 q 37.248,0 54.912,-19.968 17.664,-19.968 17.664,-64.512 v -38.4 q 0,-44.544 -17.664,-64.512 -17.664,-19.968 -54.912,-19.968 h -57.216 z m 271.4881,32.64 q -30.336,0 -47.616,-14.976 -17.28,-15.36 -17.28,-42.24 0,-27.648 18.048,-43.008 18.432,-15.36 53.76,-18.816 l 57.216,-5.76 v 24.576 l -46.848,4.608 q -23.424,2.304 -34.176,10.368 -10.752,7.68 -10.752,22.656 v 2.304 q 0,15.36 10.752,23.424 11.136,7.68 31.488,7.68 24.96,0 37.248,-10.752 12.288,-11.136 12.288,-33.408 v -31.872 -5.376 -24.192 q 0,-25.344 -10.368,-36.864 -9.984,-11.52 -32.64,-11.52 -16.128,0 -26.112,5.376 -9.6,4.992 -14.208,13.056 -4.224,8.064 -4.224,17.664 v 1.536 h -36.864 q 5.376,-33.792 25.728,-50.304 20.736,-16.896 56.448,-16.896 38.784,0 58.752,19.584 19.968,19.2 19.968,56.832 v 104.832 h 26.496 v 27.648 h -33.024 q -24.192,0 -24.192,-24.192 v -10.368 h -9.6 q -7.68,19.584 -22.272,29.184 -14.208,9.216 -38.016,9.216 z m 165.50381,-3.84 v -177.408 h -26.88 v -27.648 h 57.216 v 35.328 h 9.984 q 7.68,-19.968 21.504,-29.568 14.208,-9.6 36.096,-9.6 31.872,0 48.384,19.2 16.896,19.2 16.896,56.448 v 105.6 h 26.496 v 27.648 h -62.592 v -125.568 q 0,-28.032 -11.136,-40.704 -10.752,-13.056 -34.56,-13.056 -23.424,0 -34.56,13.056 -11.136,12.672 -11.136,40.704 v 125.568 z m 234.24025,0 v -177.408 h -30.336 v -27.648 h 66.81601 v 205.056 z m -3.456,-230.016 v -34.943998 h 42.24001 v 34.943998 z m 181.63171,233.856 q -29.568,0 -50.688,-12.288 -20.736,-12.288 -31.872,-36.096 -10.752,-23.808 -10.752,-57.984 0,-34.56 10.752,-57.984 11.136,-23.808 31.872,-36.096 21.12,-12.288 50.688,-12.288 28.416,0 48.384,11.52 19.968,11.136 30.336,33.024 10.752,21.888 10.752,54.144 v 13.44 h -158.208 v -24.576 h 144 l -21.12,16.512 v -8.832 q 0,-34.56 -13.056,-50.304 -13.056,-16.128 -41.088,-16.128 -28.416,0 -41.856,16.128 -13.056,15.744 -13.056,50.304 v 21.888 q 0,33.792 13.056,49.92 13.44,16.128 41.856,16.128 18.432,0 28.8,-5.76 10.752,-6.144 15.36,-14.592 4.608,-8.448 4.608,-15.744 v -1.536 h 37.632 q -6.912,33.024 -29.184,50.304 -21.888,16.896 -57.216,16.896 z m 140.5441,-3.84 v -237.312 h -30.336 v -27.647998 h 66.432 v 264.959998 z m 196.6081,0 v -236.16 h -30.72 v -28.799998 h 203.904 v 76.799998 h -31.872 v -48 h -104.064 v 87.552 h 97.536 v 26.88 h -97.536 v 121.728 z m 223.1042,0 v -177.408 h -26.88 v -27.648 h 57.216 v 36.864 h 9.984 q 7.68,-19.968 20.736,-29.568 13.44,-9.6 34.56,-9.6 h 29.568 v 29.952 h -43.776 q -23.424,0 -34.56,12.672 -11.136,12.672 -11.136,40.704 v 124.032 z m 233.0876,3.84 q -29.568,0 -50.688,-12.288 -20.736,-12.288 -31.872,-36.096 -10.752,-23.808 -10.752,-57.984 0,-34.56 10.752,-57.984 11.136,-23.808 31.872,-36.096 21.12,-12.288 50.688,-12.288 28.416,0 48.384,11.52 19.968,11.136 30.336,33.024 10.752,21.888 10.752,54.144 v 13.44 h -158.208 v -24.576 h 144 l -21.12,16.512 v -8.832 q 0,-34.56 -13.056,-50.304 -13.056,-16.128 -41.088,-16.128 -28.416,0 -41.856,16.128 -13.056,15.744 -13.056,50.304 v 21.888 q 0,33.792 13.056,49.92 13.44,16.128 41.856,16.128 18.432,0 28.8,-5.76 10.752,-6.144 15.36,-14.592 4.608,-8.448 4.608,-15.744 v -1.536 h 37.632 q -6.912,33.024 -29.184,50.304 -21.888,16.896 -57.216,16.896 z m 144.7681,-3.84 v -177.408 h -30.336 v -27.648 h 66.816 v 205.056 z m -3.456,-230.016 v -34.943998 h 42.24 v 34.943998 z m 105.2158,230.016 v -177.408 h -26.88 v -27.648 h 57.216 v 36.864 h 9.984 q 7.68,-19.968 20.736,-29.568 13.44,-9.6 34.56,-9.6 h 29.568 v 29.952 h -43.776 q -23.424,0 -34.56,12.672 -11.136,12.672 -11.136,40.704 v 124.032 z m 233.0876,3.84 q -29.568,0 -50.688,-12.288 -20.736,-12.288 -31.872,-36.096 -10.752,-23.808 -10.752,-57.984 0,-34.56 10.752,-57.984 11.136,-23.808 31.872,-36.096 21.12,-12.288 50.688,-12.288 28.416,0 48.384,11.52 19.968,11.136 30.336,33.024 10.752,21.888 10.752,54.144 v 13.44 h -158.208 v -24.576 h 144 l -21.12,16.512 v -8.832 q 0,-34.56 -13.056,-50.304 -13.056,-16.128 -41.088,-16.128 -28.416,0 -41.856,16.128 -13.056,15.744 -13.056,50.304 v 21.888 q 0,33.792 13.056,49.92 13.44,16.128 41.856,16.128 18.432,0 28.8,-5.76 10.752,-6.144 15.36,-14.592 4.608,-8.448 4.608,-15.744 v -1.536 h 37.632 q -6.912,33.024 -29.184,50.304 -21.888,16.896 -57.216,16.896 z" id="text1" transform="matrix(0.13926615,0,0,0.13926615,29.10843,90.227229)" aria-label="Daniel Freire" />
  </g>
</svg>
