<?xml version="1.0" encoding="UTF-8" standalone="no"?>
<svg width="2500" height="2500" viewBox="-0.122 175.062 480.244 480.30695" version="1.1" id="svg1" sodipodi:docname="github.svg" inkscape:version="1.4.2 (unknown)" xmlns:inkscape="http://www.inkscape.org/namespaces/inkscape" xmlns:sodipodi="http://sodipodi.sourceforge.net/DTD/sodipodi-0.dtd" xmlns="http://www.w3.org/2000/svg" xmlns:svg="http://www.w3.org/2000/svg">
  <defs id="defs1" />
  <sodipodi:namedview id="namedview1" pagecolor="#505050" bordercolor="#eeeeee" borderopacity="1" inkscape:showpageshadow="0" inkscape:pageopacity="0" inkscape:pagecheckerboard="0" inkscape:deskcolor="#d1d1d1" inkscape:zoom="0.25653834" inkscape:cx="1023.2389" inkscape:cy="1450.0756" inkscape:window-width="1920" inkscape:window-height="981" inkscape:window-x="0" inkscape:window-y="0" inkscape:window-maximized="1" inkscape:current-layer="svg1" />
  <g fill="#121110" id="g1" transform="translate(0,175.21598)" style="fill:#e6e6e6">
    <path d="m 92.375,230.65 h -40.356 a 1.887,1.887 0 0 0 -1.886,1.886 v 19.731 a 1.89,1.89 0 0 0 1.886,1.889 h 15.743 v 24.513 c 0,0 -3.535,1.206 -13.308,1.206 -11.53,0 -27.637,-4.214 -27.637,-39.632 0,-35.425 16.772,-40.087 32.518,-40.087 13.63,0 19.502,2.401 23.238,3.556 1.174,0.36 2.26,-0.808 2.26,-1.851 l 4.502,-19.063 c 0,-0.487 -0.165,-1.075 -0.721,-1.474 -1.517,-1.082 -10.774,-6.262 -34.16,-6.262 -26.941,0 -54.576,11.463 -54.576,66.562 0,55.103 31.64,63.313 58.302,63.313 22.076,0 35.468,-9.434 35.468,-9.434 0.552,-0.306 0.612,-1.077 0.612,-1.431 v -61.537 c 0,-1.04 -0.844,-1.885 -1.885,-1.885 m 207.979,-48.986 a 1.88,1.88 0 0 0 -1.873,-1.896 h -22.724 a 1.889,1.889 0 0 0 -1.882,1.896 l 0.006,43.913 h -35.419 v -43.913 a 1.882,1.882 0 0 0 -1.875,-1.896 h -22.722 a 1.887,1.887 0 0 0 -1.877,1.896 v 118.904 c 0,1.048 0.843,1.901 1.877,1.901 h 22.722 c 1.039,0 1.875,-0.854 1.875,-1.901 v -50.86 h 35.419 l -0.062,50.86 c 0,1.048 0.844,1.901 1.883,1.901 h 22.777 c 1.041,0 1.873,-0.854 1.875,-1.901 v -118.904 m -165.1,15.604 c 0,-8.183 -6.56,-14.795 -14.653,-14.795 -8.085,0 -14.65,6.612 -14.65,14.795 0,8.173 6.565,14.802 14.65,14.802 8.093,0 14.653,-6.629 14.653,-14.802 m -1.625,78.218 v -54.886 a 1.89,1.89 0 0 0 -1.88,-1.895 h -22.651 c -1.039,0 -1.969,1.072 -1.969,2.115 v 78.634 c 0,2.312 1.44,2.998 3.304,2.998 h 20.408 c 2.239,0 2.788,-1.1 2.788,-3.034 v -23.932 m 253.081,-56.602 h -22.549 c -1.034,0 -1.876,0.852 -1.876,1.901 v 58.302 c 0,0 -5.729,4.192 -13.859,4.192 -8.13,0 -10.287,-3.689 -10.287,-11.65 v -50.844 c 0,-1.049 -0.841,-1.901 -1.875,-1.901 h -22.886 c -1.032,0 -1.879,0.852 -1.879,1.901 v 54.693 c 0,23.646 13.179,29.431 31.31,29.431 14.873,0 26.864,-8.216 26.864,-8.216 0,0 0.571,4.329 0.829,4.843 0.259,0.512 0.932,1.029 1.659,1.029 l 14.56,-0.064 c 1.032,0 1.879,-0.854 1.879,-1.898 l -0.008,-79.817 c 0,-1.05 -0.843,-1.902 -1.882,-1.902 m 52.735,64.323 c -7.821,-0.238 -13.126,-3.788 -13.126,-3.788 v -37.653 c 0,0 5.233,-3.208 11.654,-3.782 8.12,-0.727 15.944,1.726 15.944,21.095 0.001,20.426 -3.53,24.457 -14.472,24.128 z m 8.894,-66.993 c -12.807,0 -21.518,5.714 -21.518,5.714 v -40.263 c 0,-1.05 -0.839,-1.897 -1.875,-1.897 h -22.787 a 1.887,1.887 0 0 0 -1.878,1.897 v 118.903 c 0,1.048 0.842,1.901 1.881,1.901 h 15.811 c 0.711,0 1.25,-0.367 1.648,-1.009 0.393,-0.639 0.96,-5.482 0.96,-5.482 0,0 9.318,8.83 26.957,8.83 20.708,0 32.584,-10.504 32.584,-47.154 0,-36.651 -18.967,-41.44 -31.783,-41.44 m -249.403,2.481 h -17.045 l -0.026,-22.519 c 0,-0.852 -0.439,-1.278 -1.424,-1.278 h -23.228 c -0.903,0 -1.388,0.398 -1.388,1.265 v 23.271 c 0,0 -11.64,2.809 -12.427,3.037 a 1.886,1.886 0 0 0 -1.361,1.812 v 14.623 c 0,1.052 0.84,1.898 1.879,1.898 h 11.909 v 35.178 c 0,26.13 18.328,28.697 30.696,28.697 5.651,0 12.411,-1.814 13.527,-2.228 0.675,-0.248 1.067,-0.947 1.067,-1.705 l 0.019,-16.086 c 0,-1.05 -0.886,-1.897 -1.884,-1.897 -0.993,0 -3.534,0.404 -6.15,0.404 -8.372,0 -11.209,-3.893 -11.209,-8.932 l -0.001,-33.432 h 17.046 c 1.039,0 1.88,-0.847 1.88,-1.898 v -18.317 a 1.884,1.884 0 0 0 -1.88,-1.893" id="path1" style="fill:#e6e6e6" />
  </g>
</svg>
