<?xml version="1.0" encoding="UTF-8" standalone="no"?>
<svg viewBox="0 0 128 128" version="1.1" id="svg3" sodipodi:docname="mysql-original-wordmark.svg" inkscape:version="1.4.2 (unknown)" xmlns:inkscape="http://www.inkscape.org/namespaces/inkscape" xmlns:sodipodi="http://sodipodi.sourceforge.net/DTD/sodipodi-0.dtd" xmlns="http://www.w3.org/2000/svg" xmlns:svg="http://www.w3.org/2000/svg">
  <defs id="defs3" />
  <sodipodi:namedview id="namedview3" pagecolor="#505050" bordercolor="#eeeeee" borderopacity="1" inkscape:showpageshadow="0" inkscape:pageopacity="0" inkscape:pagecheckerboard="0" inkscape:deskcolor="#d1d1d1" inkscape:zoom="2.8984375" inkscape:cx="134.03774" inkscape:cy="113.50943" inkscape:window-width="1920" inkscape:window-height="981" inkscape:window-x="0" inkscape:window-y="0" inkscape:window-maximized="1" inkscape:current-layer="svg3" />
  <g id="g3" transform="translate(0,7.0571437e-4)">
    <path fill="#00618a" d="m 0,91.313 h 4.242 v -16.747 l 6.566,14.598 c 0.773,1.77 1.832,2.391 3.914,2.391 2.082,0 3.098,-0.621 3.871,-2.391 l 6.566,-14.598 v 16.746 h 4.242 v -16.718 c 0,-1.633 -0.652,-2.422 -2,-2.828 -3.223,-1.004 -5.383,-0.137 -6.363,2.039 l -6.441,14.41 -6.238,-14.41 c -0.937,-2.176 -3.14,-3.043 -6.359,-2.039 -1.348,0.406 -2,1.195 -2,2.828 z m 32.93,-13.633 h 4.238 v 9.227 c -0.039,0.5 0.16,1.676 2.484,1.715 h 9.223 v -10.989 h 4.25 c 0.02,0 -0.008,14.984 -0.008,15.047 0.023,3.695 -4.582,4.496 -6.707,4.559 h -13.39 v -2.852 l 13.414,-0.004 c 2.73,-0.285 2.406,-1.645 2.406,-2.098 v -1.113 h -9.012 c -4.195,-0.039 -6.863,-1.871 -6.898,-3.977 -0.004,-0.191 0.09,-9.422 0,-9.516 z m 0,0" id="path1" />
    <path fill="#e48e00" d="m 56.391,91.313 h 12.195 c 1.426,0 2.813,-0.301 3.914,-0.816 1.836,-0.84 2.73,-1.984 2.73,-3.48 v -3.098 c 0,-1.223 -1.016,-2.367 -3.016,-3.125 -1.059,-0.41 -2.367,-0.625 -3.629,-0.625 h -5.141 c -1.711,0 -2.527,-0.516 -2.73,-1.656 -0.039,-0.137 -0.039,-0.246 -0.039,-0.383 v -1.93 c 0,-0.109 0,-0.219 0.039,-0.355 0.203,-0.867 0.652,-1.113 2.16,-1.25 l 0.41,-0.027 h 12.109 v -2.824 h -11.905 c -1.711,0 -2.609,0.109 -3.426,0.352 -2.527,0.789 -3.629,2.039 -3.629,4.215 v 2.473 c 0,1.902 2.16,3.535 5.789,3.914 l 1.223,0.055 h 4.406 c 0.164,0 0.324,0 0.449,0.027 1.344,0.109 1.914,0.355 2.324,0.844 0.211,0.195 0.332,0.473 0.324,0.758 v 2.477 c 0,0.297 -0.203,0.68 -0.609,1.004 -0.367,0.328 -0.98,0.543 -1.793,0.598 l -0.449,0.027 h -11.706 z m 45.297,-4.922 c 0,2.91 2.164,4.539 6.523,4.867 l 1.227,0.055 h 11.051 v -2.828 h -11.133 c -2.488,0 -3.426,-0.625 -3.426,-2.121 v -14.626 h -4.238 v 14.652 z m -23.75,0.148 v -10.082 c 0,-2.559 1.801,-4.113 5.355,-4.602 a 7.976,7.976 0 0 1 1.145,-0.082 h 8.047 c 0.41,0 0.777,0.027 1.188,0.082 3.555,0.488 5.352,2.043 5.352,4.602 v 10.082 c 0,2.078 -0.762,3.188 -2.523,3.914 l 4.18,3.77 h -4.926 l -3.379,-3.051 -3.402,0.215 h -4.535 a 9.23,9.23 0 0 1 -2.492,-0.352 c -2.699,-0.734 -4.008,-2.152 -4.008,-4.496 z m 4.578,-0.246 c 0,0.137 0.039,0.273 0.082,0.438 0.246,1.172 1.348,1.824 3.023,1.824 h 3.852 l -3.539,-3.195 h 4.926 l 3.086,2.789 c 0.57,-0.305 0.941,-0.766 1.074,-1.363 0.039,-0.137 0.039,-0.273 0.039,-0.41 v -9.668 c 0,-0.109 0,-0.246 -0.039,-0.383 -0.246,-1.09 -1.348,-1.715 -2.984,-1.715 h -6.414 c -1.879,0 -3.105,0.816 -3.105,2.098 z m 0,0" id="path2" />
    <path fill="#00618a" d="m 124.219,67.047 c -2.605,-0.07 -4.598,0.172 -6.301,0.891 -0.484,0.203 -1.258,0.207 -1.336,0.813 0.266,0.281 0.309,0.699 0.52,1.039 0.406,0.66 1.094,1.539 1.707,2 l 2.074,1.484 c 1.273,0.777 2.699,1.223 3.93,2 0.723,0.461 1.441,1.039 2.148,1.559 0.348,0.254 0.582,0.656 1.039,0.816 v -0.074 c -0.238,-0.305 -0.301,-0.723 -0.52,-1.039 l -0.965,-0.965 c -0.941,-1.25 -2.137,-2.348 -3.41,-3.262 -1.016,-0.727 -3.281,-1.711 -3.707,-2.891 l -0.074,-0.074 c 0.719,-0.078 1.563,-0.34 2.223,-0.516 1.117,-0.301 2.113,-0.223 3.262,-0.52 l 1.559,-0.449 v -0.293 c -0.582,-0.598 -0.996,-1.387 -1.633,-1.93 -1.656,-1.41 -3.469,-2.824 -5.336,-4.004 -1.035,-0.652 -2.312,-1.074 -3.41,-1.629 -0.367,-0.187 -1.016,-0.281 -1.262,-0.594 -0.574,-0.734 -0.887,-1.664 -1.332,-2.52 l -2.668,-5.633 c -0.562,-1.285 -0.93,-2.555 -1.633,-3.707 -3.363,-5.535 -6.988,-8.875 -12.602,-12.156 -1.191,-0.699 -2.633,-0.973 -4.148,-1.332 l -2.449,-0.148 c -0.496,-0.211 -1.012,-0.82 -1.48,-1.113 -1.859,-1.176 -6.629,-3.73 -8.008,-0.371 -0.867,2.121 1.301,4.191 2.078,5.266 0.543,0.754 1.242,1.598 1.629,2.445 0.258,0.555 0.301,1.113 0.52,1.703 0.539,1.453 1.008,3.031 1.707,4.375 0.352,0.68 0.738,1.395 1.184,2 0.273,0.371 0.742,0.539 0.816,1.113 -0.457,0.641 -0.484,1.633 -0.742,2.445 -1.16,3.652 -0.723,8.191 0.965,10.898 0.516,0.828 1.734,2.609 3.41,1.926 1.465,-0.598 1.137,-2.445 1.555,-4.078 0.098,-0.367 0.039,-0.641 0.223,-0.887 v 0.074 l 1.336,2.668 c 0.988,1.59 2.738,3.25 4.223,4.371 0.773,0.582 1.379,1.59 2.375,1.93 v -0.078 h -0.074 c -0.195,-0.297 -0.496,-0.422 -0.742,-0.664 -0.582,-0.57 -1.227,-1.277 -1.703,-1.93 -1.352,-1.832 -2.547,-3.84 -3.633,-5.93 -0.52,-0.996 -0.973,-2.098 -1.41,-3.113 -0.168,-0.391 -0.164,-0.984 -0.516,-1.184 -0.48,0.742 -1.187,1.344 -1.559,2.223 -0.594,1.402 -0.668,3.117 -0.891,4.891 l -0.148,0.074 c -1.031,-0.25 -1.395,-1.312 -1.777,-2.223 -0.973,-2.305 -1.152,-6.02 -0.297,-8.672 0.219,-0.687 1.219,-2.852 0.813,-3.484 -0.191,-0.633 -0.828,-1 -1.184,-1.484 a 11.7,11.7 0 0 1 -1.187,-2.074 c -0.793,-1.801 -1.164,-3.816 -2,-5.633 -0.398,-0.871 -1.074,-1.75 -1.629,-2.523 -0.617,-0.855 -1.305,-1.484 -1.781,-2.52 -0.168,-0.367 -0.398,-0.957 -0.148,-1.336 0.078,-0.254 0.195,-0.359 0.445,-0.441 0.43,-0.332 1.629,0.109 2.074,0.293 1.191,0.496 2.184,0.965 3.191,1.633 0.48,0.32 0.969,0.941 1.555,1.113 h 0.668 c 1.043,0.238 2.211,0.07 3.188,0.367 1.723,0.523 3.27,1.34 4.668,2.227 4.273,2.695 7.766,6.535 10.156,11.117 0.387,0.738 0.551,1.441 0.891,2.223 0.684,1.578 1.543,3.203 2.223,4.746 0.68,1.543 1.34,3.094 2.297,4.375 0.504,0.672 2.453,1.031 3.336,1.406 0.621,0.262 1.637,0.535 2.223,0.891 1.125,0.676 2.211,1.48 3.266,2.223 0.523,0.375 2.141,1.188 2.223,1.855 z m -33.137,-28.242 a 5.26,5.26 0 0 0 -1.332,0.148 v 0.074 h 0.074 c 0.258,0.535 0.715,0.879 1.035,1.336 l 0.742,1.555 0.074,-0.07 c 0.461,-0.324 0.668,-0.844 0.668,-1.633 -0.187,-0.195 -0.211,-0.437 -0.371,-0.668 -0.211,-0.309 -0.621,-0.48 -0.891,-0.742 z m 0,0" id="path3" />
  </g>
</svg>
