<?xml version="1.0" encoding="UTF-8" standalone="no"?>
<svg height="2500" width="2500" viewBox="0 0 394 390.91043" version="1.1" id="svg3" sodipodi:docname="nextjs-13.svg" inkscape:version="1.4.2 (unknown)" xmlns:inkscape="http://www.inkscape.org/namespaces/inkscape" xmlns:sodipodi="http://sodipodi.sourceforge.net/DTD/sodipodi-0.dtd" xmlns="http://www.w3.org/2000/svg" xmlns:svg="http://www.w3.org/2000/svg">
  <defs id="defs3" />
  <sodipodi:namedview id="namedview3" pagecolor="#505050" bordercolor="#eeeeee" borderopacity="1" inkscape:showpageshadow="0" inkscape:pageopacity="0" inkscape:pagecheckerboard="0" inkscape:deskcolor="#d1d1d1" inkscape:zoom="0.1814" inkscape:cx="1502.2051" inkscape:cy="429.98897" inkscape:window-width="1920" inkscape:window-height="981" inkscape:window-x="0" inkscape:window-y="0" inkscape:window-maximized="1" inkscape:current-layer="svg3" />
  <g id="g1" transform="translate(0,155.73872)">
    <path d="m 261.919,0.033 h 68.628 v 12.667 h -27.224 v 66.639 h -13.613 v -66.639 h -27.791 z m -112.867,0 v 12.667 h -55.01 v 20.377 h 44.239 v 12.667 h -44.239 v 20.928 h 55.01 v 12.668 h -68.622 v -66.64 h -0.006 v -12.667 z m 34.268,0.033 h -17.814 l 63.806,79.306 h 17.866 l -31.907,-39.626 31.856,-39.62 -17.815,0.028 -22.96,28.516 z m 18.28,56.649 -8.921,-11.092 -27.224,33.81 h 17.865 z" fill="var(--geist-foreground)" id="path1" style="fill:#ececec" />
    <path clip-rule="evenodd" d="m 80.907,79.339 -63.892,-79.339 h -17.015 v 79.306 h 13.612 v -62.354 l 50.195,62.387 z" fill="var(--geist-foreground)" fill-rule="evenodd" id="path2" style="fill:#ececec" />
    <path d="m 333.607,78.855 a 3.528,3.528 0 0 1 -2.555,-1.036 c -0.71,-0.691 -1.061,-1.527 -1.052,-2.518 -0.009,-0.963 0.342,-1.79 1.052,-2.481 a 3.528,3.528 0 0 1 2.555,-1.036 c 0.959,0 1.798,0.345 2.508,1.036 0.72,0.69 1.079,1.518 1.089,2.481 a 3.44,3.44 0 0 1 -0.508,1.79 3.675,3.675 0 0 1 -1.319,1.282 3.403,3.403 0 0 1 -1.77,0.482 z m 23.233,-33.41 h 6.032 v 23.24 c -0.009,2.135 -0.471,3.962 -1.374,5.498 -0.913,1.536 -2.177,2.708 -3.8,3.535 -1.614,0.818 -3.505,1.237 -5.654,1.237 -1.965,0 -3.726,-0.355 -5.294,-1.046 -1.568,-0.69 -2.813,-1.726 -3.726,-3.09 -0.923,-1.363 -1.375,-3.063 -1.375,-5.098 h 6.042 c 0.009,0.89 0.212,1.663 0.599,2.308 a 3.855,3.855 0 0 0 1.605,1.481 c 0.691,0.346 1.485,0.519 2.379,0.519 0.969,0 1.799,-0.2 2.472,-0.61 0.673,-0.4 1.19,-1 1.55,-1.799 0.35,-0.79 0.535,-1.772 0.544,-2.935 z m 30.851,9.089 c -0.147,-1.409 -0.793,-2.509 -1.918,-3.29 -1.135,-0.79 -2.601,-1.182 -4.4,-1.182 -1.263,0 -2.351,0.191 -3.255,0.564 -0.904,0.382 -1.605,0.89 -2.085,1.536 -0.479,0.645 -0.719,1.381 -0.738,2.208 0,0.691 0.166,1.29 0.489,1.79 0.323,0.51 0.756,0.937 1.319,1.282 a 8.806,8.806 0 0 0 1.845,0.882 c 0.682,0.236 1.365,0.436 2.047,0.6 l 3.145,0.772 a 21.74,21.74 0 0 1 3.662,1.182 12.966,12.966 0 0 1 3.163,1.872 8.384,8.384 0 0 1 2.214,2.726 c 0.544,1.064 0.821,2.309 0.821,3.745 0,1.936 -0.498,3.635 -1.504,5.108 -1.005,1.463 -2.453,2.608 -4.353,3.435 -1.891,0.818 -4.178,1.236 -6.871,1.236 -2.601,0 -4.87,-0.4 -6.779,-1.2 -1.918,-0.79 -3.413,-1.954 -4.492,-3.48 -1.079,-1.527 -1.66,-3.39 -1.743,-5.58 h 5.977 c 0.083,1.144 0.452,2.099 1.079,2.871 0.636,0.763 1.466,1.327 2.481,1.709 1.024,0.372 2.167,0.563 3.431,0.563 1.319,0 2.481,-0.2 3.486,-0.59 0.996,-0.391 1.78,-0.937 2.343,-1.646 0.572,-0.7 0.858,-1.526 0.867,-2.472 -0.009,-0.863 -0.268,-1.581 -0.766,-2.145 -0.507,-0.563 -1.208,-1.036 -2.103,-1.417 a 21.606,21.606 0 0 0 -3.154,-1.027 l -3.818,-0.964 c -2.758,-0.7 -4.944,-1.763 -6.54,-3.19 -1.604,-1.427 -2.398,-3.317 -2.398,-5.69 0,-1.944 0.535,-3.653 1.615,-5.116 1.069,-1.463 2.536,-2.6 4.39,-3.408 1.863,-0.818 3.966,-1.218 6.308,-1.218 2.38,0 4.464,0.4 6.263,1.218 1.798,0.809 3.21,1.936 4.233,3.372 1.024,1.436 1.559,3.08 1.587,4.944 z" fill="var(--geist-foreground)" id="path3" style="fill:#ececec" />
  </g>
</svg>
