<?xml version="1.0" encoding="UTF-8" standalone="no"?>
<svg height="2500" preserveAspectRatio="xMidYMid" viewBox="0 0 512 511.73459" width="2500" version="1.1" id="svg1" sodipodi:docname="nextjs.svg" inkscape:version="1.4.2 (unknown)" xmlns:inkscape="http://www.inkscape.org/namespaces/inkscape" xmlns:sodipodi="http://sodipodi.sourceforge.net/DTD/sodipodi-0.dtd" xmlns="http://www.w3.org/2000/svg" xmlns:svg="http://www.w3.org/2000/svg">
  <defs id="defs1" />
  <sodipodi:namedview id="namedview1" pagecolor="#505050" bordercolor="#eeeeee" borderopacity="1" inkscape:showpageshadow="0" inkscape:pageopacity="0" inkscape:pagecheckerboard="0" inkscape:deskcolor="#d1d1d1" inkscape:zoom="0.25653834" inkscape:cx="1183.059" inkscape:cy="1691.7549" inkscape:window-width="1920" inkscape:window-height="981" inkscape:window-x="0" inkscape:window-y="0" inkscape:window-maximized="1" inkscape:current-layer="svg1" />
  <path d="m 120.81,80.561 h 96.568 v 7.676 h -87.716 v 57.767 h 82.486 v 7.675 h -82.486 v 63.423 h 88.722 v 7.675 h -97.574 z m 105.22,0 h 10.26 l 45.467,63.423 46.473,-63.424 63.211,-80.56 -103.85,150.65 53.515,74.127 h -10.663 l -48.686,-67.462 -48.888,67.462 h -10.461 l 53.917,-74.128 z m 118.898,7.676 v -7.677 h 110.048 v 7.676 h -50.699 v 136.54 h -8.852 v -136.539 z m -344.928,-7.677 h 11.065 l 152.58,228.323 -63.053,-84.107 -91.338,-133.308 -0.402,133.31 h -8.852 z m 454.084,134.224 c -1.809,0 -3.165,-1.4 -3.165,-3.212 0,-1.81 1.356,-3.212 3.165,-3.212 1.83,0 3.165,1.401 3.165,3.212 0,1.811 -1.335,3.212 -3.165,3.212 z m 8.698,-8.45 h 4.737 c 0.064,2.565 1.937,4.29 4.693,4.29 3.079,0 4.823,-1.854 4.823,-5.325 v -21.99 h 4.823 v 22.011 c 0,6.252 -3.617,9.853 -9.603,9.853 -5.62,0 -9.473,-3.493 -9.473,-8.84 z m 25.384,-0.28 h 4.78 c 0.409,2.953 3.294,4.828 7.45,4.828 3.875,0 6.717,-2.005 6.717,-4.764 0,-2.371 -1.809,-3.794 -5.921,-4.764 l -4.005,-0.97 c -5.62,-1.316 -8.181,-4.032 -8.181,-8.602 0,-5.54 4.521,-9.227 11.303,-9.227 6.308,0 10.916,3.686 11.196,8.925 h -4.694 c -0.452,-2.867 -2.95,-4.657 -6.567,-4.657 -3.81,0 -6.35,1.833 -6.35,4.635 0,2.22 1.635,3.493 5.683,4.441 l 3.423,0.841 c 6.373,1.488 9,4.075 9,8.753 0,5.95 -4.607,9.68 -11.97,9.68 -6.89,0 -11.52,-3.558 -11.864,-9.12 z" id="path2" transform="translate(0,101.42579)" />
</svg>
