<?xml version="1.0" encoding="UTF-8" standalone="no"?>
<svg height="2500" preserveAspectRatio="xMidYMid" width="2500" viewBox="-1.871 -0.407 260.76406 257.849" version="1.1" id="svg6" sodipodi:docname="vitejs.svg" inkscape:version="1.4.2 (unknown)" xmlns:inkscape="http://www.inkscape.org/namespaces/inkscape" xmlns:sodipodi="http://sodipodi.sourceforge.net/DTD/sodipodi-0.dtd" xmlns="http://www.w3.org/2000/svg" xmlns:svg="http://www.w3.org/2000/svg">
  <defs id="defs6" />
  <sodipodi:namedview id="namedview6" pagecolor="#505050" bordercolor="#eeeeee" borderopacity="1" inkscape:showpageshadow="0" inkscape:pageopacity="0" inkscape:pagecheckerboard="0" inkscape:deskcolor="#d1d1d1" inkscape:zoom="0.1484" inkscape:cx="771.56334" inkscape:cy="1597.035" inkscape:window-width="1920" inkscape:window-height="981" inkscape:window-x="0" inkscape:window-y="0" inkscape:window-maximized="1" inkscape:current-layer="svg6" />
  <linearGradient id="a" x1="-2.0007203" x2="139.28905" y1="48.343502" y2="219.34656" gradientTransform="scale(1.0592958,0.94402338)" gradientUnits="userSpaceOnUse">
    <stop offset="0" stop-color="#41d1ff" id="stop1" />
    <stop offset="1" stop-color="#bd34fe" id="stop2" />
  </linearGradient>
  <linearGradient id="b" x1="188.00648" x2="199.00609" y1="3.5533929" y2="141.10861" gradientTransform="scale(0.74063538,1.3501921)" gradientUnits="userSpaceOnUse">
    <stop offset="0" stop-color="#ffea83" id="stop3" />
    <stop offset=".083" stop-color="#ffdd35" id="stop4" />
    <stop offset="1" stop-color="#ffa800" id="stop5" />
  </linearGradient>
  <g id="g6" transform="translate(0.51087078,0.35665012)">
    <path d="m 255.153,37.938 -120.256,215.038 c -2.483,4.44 -8.862,4.466 -11.382,0.048 l -122.64,-215.066 c -2.746,-4.814 1.371,-10.646 6.827,-9.67 l 120.385,21.517 a 6.537,6.537 0 0 0 2.322,-0.004 l 117.867,-21.483 c 5.438,-0.991 9.574,4.796 6.877,9.62 z" fill="url(#a)" id="path5" style="fill:url(#a)" />
    <path d="m 185.432,0.063 -88.992,17.438 a 3.268,3.268 0 0 0 -2.634,3.014 l -5.474,92.456 a 3.268,3.268 0 0 0 3.997,3.378 l 24.777,-5.718 c 2.318,-0.535 4.413,1.507 3.936,3.838 l -7.361,36.047 c -0.495,2.426 1.782,4.5 4.151,3.78 l 15.304,-4.649 c 2.372,-0.72 4.652,1.36 4.15,3.788 l -11.698,56.621 c -0.732,3.542 3.979,5.473 5.943,2.437 l 1.313,-2.028 72.516,-144.72 c 1.215,-2.423 -0.88,-5.186 -3.54,-4.672 l -25.505,4.922 c -2.396,0.462 -4.435,-1.77 -3.759,-4.114 l 16.646,-57.705 c 0.677,-2.35 -1.37,-4.583 -3.769,-4.113 z" fill="url(#b)" id="path6" style="fill:url(#b)" />
  </g>
</svg>
